<?xml version="1.0" standalone="no"?>
<!DOCTYPE svg PUBLIC "-//W3C//DTD SVG 20010904//EN"
 "http://www.w3.org/TR/2001/REC-SVG-20010904/DTD/svg10.dtd">
<svg version="1.0" xmlns="http://www.w3.org/2000/svg"
 width="512.000000pt" height="512.000000pt" viewBox="0 0 512.000000 512.000000"
 preserveAspectRatio="xMidYMid meet">

<g transform="translate(0.000000,512.000000) scale(0.100000,-0.100000)"
fill="#000000" stroke="none">
<path d="M1850 4550 l0 -280 -210 0 -209 0 -3 -142 -3 -143 -142 -3 -142 -3
-3 -142 -3 -142 -142 -3 -143 -3 0 -494 0 -495 -280 0 -280 0 0 -140 0 -140
280 0 280 0 0 -495 0 -495 288 -2 287 -3 3 -352 2 -353 350 0 350 0 2 353 3
352 425 0 425 0 3 -352 2 -353 350 0 350 0 2 353 3 352 288 3 287 2 0 495 0
495 280 0 280 0 0 140 0 140 -280 0 -280 0 0 495 0 494 -142 3 -143 3 -3 142
-3 142 -142 3 -142 3 -3 143 -3 142 -209 0 -210 0 0 280 0 280 -140 0 -140 0
0 -280 0 -280 -430 0 -430 0 0 280 0 280 -140 0 -140 0 0 -280z m428 -1847 l2
-573 -285 0 -285 0 0 575 0 575 283 -2 282 -3 3 -572z m1132 2 l0 -575 -285 0
-285 0 0 568 c0 313 3 572 7 575 3 4 132 7 285 7 l278 0 0 -575z"/>
<path d="M0 3490 l0 -780 140 0 140 0 0 780 0 780 -140 0 -140 0 0 -780z"/>
<path d="M4840 3490 l0 -780 140 0 140 0 0 780 0 780 -140 0 -140 0 0 -780z"/>
<path d="M857 703 c-4 -3 -7 -129 -7 -280 l0 -273 285 0 285 0 0 280 0 280
-278 0 c-153 0 -282 -3 -285 -7z"/>
<path d="M3700 430 l0 -280 285 0 285 0 -2 278 -3 277 -282 3 -283 2 0 -280z"/>
</g>
</svg>
